<?xml version="1.0" standalone="no"?>
<!DOCTYPE svg PUBLIC "-//W3C//DTD SVG 20010904//EN"
 "http://www.w3.org/TR/2001/REC-SVG-20010904/DTD/svg10.dtd">
<svg version="1.0" xmlns="http://www.w3.org/2000/svg"
 width="256.000000pt" height="256.000000pt" viewBox="0 0 256.000000 256.000000"
 preserveAspectRatio="xMidYMid meet">

<g transform="translate(0.000000,256.000000) scale(0.100000,-0.100000)"
fill="#000000" stroke="none">
<path d="M1158 2494 c-51 -15 -73 -42 -63 -75 6 -18 2 -19 -36 -17 -42 3 -44
2 -76 -52 -49 -80 -52 -100 -20 -124 l27 -20 -32 -26 -31 -27 11 -59 c15 -72
40 -109 75 -109 35 -1 41 -9 27 -34 -16 -31 1 -53 68 -89 70 -38 85 -39 111
-11 20 22 41 19 41 -6 0 -28 44 -32 118 -10 62 19 84 39 80 74 -3 27 4 29 49
16 18 -6 27 2 57 47 51 77 55 103 21 138 l-27 28 30 16 c38 20 41 30 28 97
-16 77 -40 111 -74 107 -25 -3 -27 0 -24 29 2 25 -3 36 -30 56 -78 59 -139 73
-158 37 -14 -27 -24 -25 -38 5 -10 20 -18 25 -49 24 -21 0 -59 -7 -85 -15z
m104 -79 c35 -30 76 -32 110 -5 22 17 27 18 46 4 17 -11 20 -21 16 -44 -5 -24
0 -35 24 -60 18 -18 41 -30 56 -30 41 0 45 -40 7 -78 -36 -36 -41 -77 -11
-114 17 -22 18 -27 4 -46 -11 -17 -21 -20 -44 -16 -24 5 -35 0 -60 -24 -16
-17 -30 -40 -30 -52 0 -12 -9 -24 -22 -29 -18 -7 -29 -3 -51 17 -32 31 -86 35
-115 9 -16 -15 -20 -15 -40 -1 -16 11 -22 25 -22 53 0 44 -21 68 -68 77 -45 9
-52 43 -18 77 30 30 33 64 11 108 -22 42 -6 69 42 69 45 0 83 32 83 71 0 45
38 51 82 14z"/>
<path d="M1210 2308 c-60 -31 -90 -77 -90 -140 0 -94 63 -158 153 -158 97 0
157 53 165 145 10 127 -115 211 -228 153z"/>
<path d="M299 1806 c-102 -27 -181 -95 -228 -196 -22 -46 -26 -69 -26 -145 0
-108 17 -152 92 -237 49 -56 73 -110 73 -162 0 -14 -4 -26 -10 -26 -13 0 -40
-54 -40 -80 0 -32 27 -78 51 -85 11 -4 27 -21 34 -38 24 -57 68 -90 127 -95
64 -5 111 22 143 81 11 20 32 42 47 48 27 11 58 62 58 97 0 10 -11 36 -25 56
-23 34 -24 41 -14 82 7 28 31 69 67 112 82 100 97 138 97 252 0 85 -3 101 -28
150 -16 30 -40 68 -55 83 -92 98 -233 138 -363 103z m218 -92 c87 -42 142
-126 150 -229 6 -79 -21 -152 -83 -223 -47 -54 -84 -132 -84 -178 0 -23 -4
-25 -32 -22 l-33 3 -3 97 -3 98 41 43 c42 46 48 65 28 85 -19 19 -40 14 -73
-18 l-31 -30 -29 30 c-31 32 -53 38 -73 18 -21 -21 -13 -43 28 -83 l40 -39 0
-103 0 -103 -34 0 c-32 0 -35 2 -41 41 -11 63 -29 100 -80 162 -64 79 -85 129
-85 207 0 208 207 335 397 244z"/>
<path d="M1180 1690 c-41 -38 -78 -69 -81 -70 -4 0 -9 9 -12 20 -5 18 -14 20
-96 20 -89 0 -92 -1 -101 -26 -6 -14 -10 -71 -10 -127 0 -95 -2 -104 -25 -126
-33 -31 -33 -74 0 -107 25 -24 25 -25 27 -247 l3 -222 389 -3 c279 -1 393 1
402 9 11 9 14 57 14 229 0 204 1 218 20 235 12 11 20 31 20 49 0 32 -67 103
-336 359 -105 100 -114 100 -214 7z m-162 -125 c2 -12 -9 -32 -28 -50 l-30
-29 0 53 c0 51 1 52 28 49 18 -2 28 -10 30 -23z m307 11 c61 -26 86 -117 45
-169 -63 -80 -200 -38 -200 60 0 48 26 92 63 108 41 18 50 18 92 1z m285 -511
l0 -185 -85 0 -84 0 -3 133 -3 132 -145 3 c-127 2 -146 1 -157 -15 -9 -11 -13
-56 -13 -135 l0 -118 -85 0 -85 0 0 178 c0 98 3 182 7 185 3 4 152 7 330 7
l323 0 0 -185z"/>
<path d="M2020 1391 c-70 -22 -93 -34 -158 -83 -44 -33 -53 -44 -50 -66 5 -41
38 -40 95 4 156 120 359 120 516 0 57 -43 84 -46 93 -10 7 29 -11 48 -96 105
-101 67 -279 89 -400 50z"/>
<path d="M2055 1214 c-63 -22 -117 -71 -113 -103 4 -37 31 -38 85 -2 94 62
187 62 273 0 44 -32 66 -34 83 -8 17 27 -15 63 -84 98 -53 26 -73 31 -133 30
-39 0 -89 -7 -111 -15z"/>
<path d="M2098 1033 c-34 -21 -41 -38 -28 -64 13 -23 33 -24 64 -4 21 14 27
14 59 -1 30 -14 39 -15 52 -4 40 33 -9 90 -79 90 -22 0 -53 -8 -68 -17z"/>
<path d="M1200 684 c-36 -19 -99 -41 -140 -49 -41 -9 -78 -21 -83 -28 -14 -21
2 -155 27 -229 44 -125 128 -236 238 -314 l37 -26 34 21 c51 31 159 149 194
212 53 93 94 262 79 323 -5 20 -14 26 -44 31 -66 10 -146 36 -201 66 -30 16
-59 29 -65 28 -6 -1 -40 -16 -76 -35z m221 -184 c10 -6 19 -19 19 -28 0 -24
-171 -192 -195 -192 -23 0 -95 68 -95 90 0 40 46 52 75 20 18 -20 19 -20 91
50 39 38 75 70 79 70 3 0 15 -5 26 -10z"/>
</g>
</svg>
