<?xml version="1.0" standalone="no"?>
<!DOCTYPE svg PUBLIC "-//W3C//DTD SVG 20010904//EN"
 "http://www.w3.org/TR/2001/REC-SVG-20010904/DTD/svg10.dtd">
<svg version="1.0" xmlns="http://www.w3.org/2000/svg"
 width="256.000000pt" height="256.000000pt" viewBox="0 0 256.000000 256.000000"
 preserveAspectRatio="xMidYMid meet">

<g transform="translate(0.000000,256.000000) scale(0.100000,-0.100000)"
fill="#000000" stroke="none">
<path d="M1166 2481 c-44 -43 -317 -304 -606 -580 -289 -277 -533 -517 -542
-534 -23 -41 -23 -84 2 -124 34 -57 62 -68 187 -72 l112 -3 3 -533 c3 -521 3
-534 24 -561 11 -15 33 -37 48 -48 26 -20 43 -21 295 -24 259 -3 268 -2 294
18 l27 21 0 383 c0 284 3 385 12 394 17 17 499 17 516 0 9 -9 12 -110 12 -394
l0 -383 27 -21 c26 -20 35 -21 294 -18 252 3 269 4 295 24 15 11 37 33 48 48
21 27 21 40 24 562 l3 534 92 0 c114 0 158 12 191 51 32 38 40 68 32 117 -6
31 -31 60 -162 187 l-154 150 0 363 0 363 -25 24 -24 25 -219 0 c-272 0 -260
7 -264 -148 l-3 -102 -86 77 c-47 43 -136 124 -197 181 -143 131 -144 131
-256 23z"/>
</g>
</svg>
