<?xml version="1.0" standalone="no"?>
<!DOCTYPE svg PUBLIC "-//W3C//DTD SVG 20010904//EN"
 "http://www.w3.org/TR/2001/REC-SVG-20010904/DTD/svg10.dtd">
<svg version="1.0" xmlns="http://www.w3.org/2000/svg"
 width="256.000000pt" height="256.000000pt" viewBox="0 0 256.000000 256.000000"
 preserveAspectRatio="xMidYMid meet">

<g transform="translate(0.000000,256.000000) scale(0.100000,-0.100000)"
fill="#000000" stroke="none">
<path d="M1140 2549 c-271 -48 -506 -225 -625 -472 -67 -139 -79 -197 -80
-367 0 -234 7 -251 299 -781 120 -217 279 -504 354 -639 139 -253 164 -290
192 -290 28 0 53 37 192 290 74 135 233 422 353 638 293 529 300 548 300 782
-1 170 -13 228 -80 367 -107 221 -306 386 -545 453 -87 24 -275 34 -360 19z
m315 -457 c271 -127 333 -475 123 -685 -165 -165 -431 -165 -596 0 -114 114
-153 278 -103 441 25 82 115 188 196 229 85 44 124 53 220 50 77 -2 100 -7
160 -35z"/>
</g>
</svg>
