<?xml version="1.0" standalone="no"?>
<!DOCTYPE svg PUBLIC "-//W3C//DTD SVG 20010904//EN"
 "http://www.w3.org/TR/2001/REC-SVG-20010904/DTD/svg10.dtd">
<svg version="1.0" xmlns="http://www.w3.org/2000/svg"
 width="256.000000pt" height="256.000000pt" viewBox="0 0 256.000000 256.000000"
 preserveAspectRatio="xMidYMid meet">

<g transform="translate(0.000000,256.000000) scale(0.100000,-0.100000)"
fill="#000000" stroke="none">
<path d="M1959 2461 c-109 -35 -190 -109 -243 -221 -28 -59 -31 -74 -31 -166
l0 -101 -443 -222 -443 -222 -50 45 c-128 116 -293 136 -456 56 -149 -74 -235
-246 -206 -415 30 -173 157 -297 336 -328 118 -20 233 15 328 101 l48 43 445
-223 446 -223 -6 -66 c-25 -264 215 -482 471 -429 169 35 285 154 316 324 30
163 -56 343 -201 416 -158 79 -338 56 -463 -60 l-45 -41 -444 222 -443 221 0
108 0 108 443 221 444 222 41 -38 c61 -56 105 -80 178 -99 209 -54 432 78 485
286 77 302 -211 576 -507 481z"/>
</g>
</svg>
