<?xml version="1.0" standalone="no"?>
<!DOCTYPE svg PUBLIC "-//W3C//DTD SVG 20010904//EN"
 "http://www.w3.org/TR/2001/REC-SVG-20010904/DTD/svg10.dtd">
<svg version="1.0" xmlns="http://www.w3.org/2000/svg"
 width="256.000000pt" height="256.000000pt" viewBox="0 0 256.000000 256.000000"
 preserveAspectRatio="xMidYMid meet">

<g transform="translate(0.000000,256.000000) scale(0.100000,-0.100000)"
fill="#000000" stroke="none">
<path d="M985 2375 c-23 -22 -25 -32 -25 -108 l0 -84 -46 -18 -46 -17 -51 50
c-64 62 -92 75 -132 57 -38 -16 -371 -351 -383 -385 -13 -36 1 -67 60 -127
l51 -51 -19 -46 -19 -46 -83 0 c-75 0 -85 -2 -107 -25 l-25 -24 0 -271 0 -271
25 -24 c22 -23 32 -25 107 -25 l83 0 19 -46 19 -46 -51 -51 c-59 -60 -73 -91
-60 -127 12 -34 345 -369 383 -385 40 -18 68 -5 132 57 l51 50 46 -17 46 -18
0 -84 c0 -76 2 -86 25 -108 l24 -25 271 0 271 0 24 25 c23 22 25 32 25 107 l0
83 45 19 46 18 59 -56 c50 -48 64 -56 96 -56 35 0 49 11 217 177 99 98 185
191 192 208 18 40 5 68 -57 132 l-51 51 19 46 19 46 83 0 c75 0 85 2 107 25
l25 24 0 271 0 271 -25 24 c-22 23 -32 25 -107 25 l-83 0 -19 46 -19 46 51 51
c62 64 75 92 57 132 -7 17 -93 110 -192 208 -168 166 -182 177 -217 177 -32 0
-46 -8 -95 -55 l-58 -55 -46 17 -47 17 0 84 c0 75 -2 85 -25 107 l-24 25 -271
0 -271 0 -24 -25z m439 -397 c22 -20 30 -45 56 -178 17 -85 32 -165 35 -177
l5 -23 -240 0 -240 0 5 23 c3 12 18 92 35 177 39 203 36 200 200 200 109 0
121 -2 144 -22z m-449 -298 l-32 -160 337 0 337 0 -32 160 c-18 88 -29 160
-26 160 17 0 74 -44 125 -96 84 -86 156 -248 156 -351 0 -23 5 -33 15 -33 9 0
27 -11 40 -25 33 -32 33 -78 0 -110 l-24 -25 -591 0 -591 0 -24 25 c-33 32
-33 78 0 110 13 14 31 25 40 25 10 0 15 10 15 33 0 103 72 265 156 351 51 52
108 96 125 96 3 0 -8 -72 -26 -160z m-268 -732 c51 -51 93 -99 93 -108 0 -20
-180 -200 -200 -200 -20 0 -40 20 -40 39 0 9 33 48 72 88 l72 73 -72 73 c-72
72 -82 93 -60 115 23 23 43 11 135 -80z m400 0 c51 -51 93 -99 93 -108 0 -20
-180 -200 -200 -200 -20 0 -40 20 -40 39 0 9 33 48 72 88 l72 73 -72 73 c-72
72 -82 93 -60 115 23 23 43 11 135 -80z m400 0 c51 -51 93 -99 93 -108 0 -20
-180 -200 -200 -200 -20 0 -40 20 -40 39 0 9 33 48 72 88 l72 73 -72 73 c-72
72 -82 93 -60 115 23 23 43 11 135 -80z m400 0 c51 -51 93 -99 93 -108 0 -20
-180 -200 -200 -200 -20 0 -40 20 -40 39 0 9 33 48 72 88 l72 73 -72 73 c-72
72 -82 93 -60 115 23 23 43 11 135 -80z"/>
</g>
</svg>
